<?xml version="1.0" standalone="no"?>
<!DOCTYPE svg PUBLIC "-//W3C//DTD SVG 20010904//EN"
 "http://www.w3.org/TR/2001/REC-SVG-20010904/DTD/svg10.dtd">
<svg version="1.0" xmlns="http://www.w3.org/2000/svg"
 width="400.000000pt" height="400.000000pt" viewBox="0 0 400.000000 400.000000"
 preserveAspectRatio="xMidYMid meet">
<metadata>
Created by potrace 1.14, written by Peter Selinger 2001-2017
</metadata>
<g transform="translate(0.000000,400.000000) scale(0.100000,-0.100000)"
fill="#000000" stroke="none">
<path d="M2435 3926 c-15 -22 -15 -27 1 -58 9 -18 20 -35 24 -38 10 -8 60 -84
60 -92 0 -5 -15 -16 -34 -25 -41 -19 -58 -51 -43 -79 5 -10 45 -55 87 -100 64
-67 81 -92 99 -145 42 -128 32 -238 -29 -331 -56 -85 -95 -96 -237 -69 -29 6
-74 13 -100 16 -26 4 -75 10 -108 15 -133 18 -469 -2 -667 -40 -57 -11 -137
-31 -178 -44 -150 -47 -149 -48 -242 46 -151 152 -133 366 46 563 25 28 45 58
46 67 0 24 -26 46 -65 54 -32 6 -34 8 -29 42 2 20 15 52 29 72 13 19 26 46 28
60 20 123 -217 -3 -332 -177 -74 -111 -123 -288 -125 -448 -1 -107 6 -151 35
-236 66 -192 113 -258 312 -437 20 -19 38 -39 38 -45 1 -7 3 -30 4 -52 2 -22
6 -72 10 -111 l7 -70 -56 2 c-70 3 -115 -8 -229 -52 -110 -43 -131 -48 -158
-34 -32 18 -59 71 -59 118 0 23 -4 42 -9 42 -15 0 -62 -105 -64 -144 -1 -20
-4 -36 -6 -36 -2 0 -19 11 -37 25 -18 14 -39 25 -46 25 -8 0 -18 4 -24 9 -12
12 -67 23 -119 22 -38 0 -50 -2 -116 -16 -15 -4 -35 -15 -45 -26 -17 -18 -16
-19 17 -16 19 2 53 -2 77 -9 53 -15 144 -69 160 -94 10 -17 8 -18 -28 -14 -52
6 -107 30 -118 50 -6 10 -14 14 -22 9 -17 -11 -6 -68 20 -104 l20 -30 -27 5
c-14 3 -30 7 -35 10 -4 3 -16 7 -27 9 -32 6 -99 53 -106 75 -10 31 -25 24 -25
-12 0 -45 34 -109 89 -168 l48 -51 -24 -18 c-12 -11 -23 -21 -23 -24 0 -3 37
-5 83 -5 87 0 116 -4 212 -28 67 -17 175 -54 175 -61 0 -2 -26 -3 -57 -3 -125
2 -230 -18 -254 -47 -14 -16 -17 -14 51 -19 75 -6 189 -38 258 -74 70 -36 140
-79 128 -80 -21 0 -183 43 -208 56 -58 30 -22 -37 62 -115 25 -22 97 -75 162
-117 l116 -76 -12 -31 c-7 -18 -12 -42 -10 -54 1 -13 2 -30 3 -38 2 -22 38
-18 74 9 59 44 97 51 158 32 83 -27 208 -52 274 -55 66 -2 72 -5 58 -23 -16
-19 -60 -148 -67 -194 -4 -21 -14 -67 -22 -102 -19 -77 -22 -248 -5 -352 29
-182 114 -337 209 -385 50 -24 64 -8 55 64 -9 75 -9 206 1 260 11 65 48 141
88 182 42 44 141 119 156 119 5 0 12 4 14 8 4 9 103 53 173 77 78 26 192 30
235 8 52 -27 52 -63 -1 -133 -54 -71 -74 -117 -59 -135 13 -16 35 -10 140 37
124 56 155 75 203 124 57 58 87 118 88 175 3 139 -75 211 -250 233 -24 3 -50
11 -57 17 -27 22 -61 153 -45 176 3 6 22 10 41 10 95 1 271 39 350 75 30 14
76 41 101 61 41 31 52 34 90 30 46 -5 42 -6 424 107 218 64 443 130 460 134 6
1 37 11 70 21 33 10 65 19 70 21 29 7 158 54 163 59 4 3 0 10 -8 16 -19 12
-439 5 -912 -15 -49 -2 -88 -1 -88 2 0 6 35 65 66 112 44 66 131 94 174 55 26
-24 34 -2 14 40 -28 59 -100 105 -166 105 -15 0 -17 7 -12 44 9 66 -2 109 -40
148 -41 42 -79 51 -126 31 l-35 -14 33 -14 c31 -13 33 -17 29 -53 -4 -42 -36
-96 -67 -112 -33 -18 -40 -12 -26 23 14 37 14 58 -3 110 -21 62 -90 101 -75
42 3 -13 1 -39 -5 -57 -9 -28 -19 -36 -51 -45 -34 -9 -40 -8 -41 6 -1 9 -2 59
-4 111 -1 52 -4 127 -5 166 -3 83 1 91 75 176 112 127 196 284 230 431 20 85
13 240 -15 337 -12 41 -25 89 -29 106 -56 217 -404 501 -476 390z"/>
</g>
</svg>
